<?xml version="1.0" standalone="no"?>
<!DOCTYPE svg PUBLIC "-//W3C//DTD SVG 20010904//EN"
 "http://www.w3.org/TR/2001/REC-SVG-20010904/DTD/svg10.dtd">
<svg version="1.0" xmlns="http://www.w3.org/2000/svg"
 width="36pt" height="63pt" viewBox="0 0 36 63"
 preserveAspectRatio="xMidYMid meet">
<metadata>
Created by potrace 1.8, written by Peter Selinger 2001-2007
</metadata>
<g transform="translate(0,63) scale(0.024000,-0.024000)"
fill="#000000" stroke="none">
<path d="M720 2565 c0 -21 -5 -25 -30 -25 -20 0 -30 -5 -30 -15 0 -10 10 -15
30 -15 25 0 30 -4 30 -25 0 -18 -9 -29 -38 -44 -53 -27 -81 -98 -51 -128 8 -8
-1 -13 -37 -17 -96 -12 -160 -29 -248 -64 -113 -45 -209 -130 -257 -228 -18
-35 -38 -64 -45 -64 -23 0 -24 -15 -8 -111 8 -52 20 -125 25 -164 6 -38 15
-89 20 -112 17 -77 14 -83 -33 -83 l-41 0 7 -132 c3 -73 11 -191 16 -263 6
-71 14 -215 20 -320 21 -393 27 -453 50 -498 51 -99 130 -151 275 -181 159
-33 221 -47 280 -62 58 -15 63 -15 185 15 69 16 166 39 215 51 50 11 99 25
110 29 11 5 35 14 53 21 43 16 102 75 131 130 28 54 35 122 57 510 22 380 31
519 39 618 l8 82 -43 0 c-34 0 -41 3 -36 16 3 9 16 75 27 147 12 73 25 152 30
177 24 119 24 119 -3 129 -15 6 -28 21 -32 36 -19 75 -133 199 -218 238 -120
54 -165 67 -290 82 l-48 6 0 54 c0 46 -4 57 -26 74 -14 11 -34 23 -45 26 -12
4 -19 15 -19 31 0 20 5 24 30 24 20 0 30 5 30 15 0 10 -10 15 -30 15 -25 0
-30 4 -30 25 0 16 -6 25 -15 25 -9 0 -15 -9 -15 -25z m69 -171 c26 -33 26 -54
1 -87 -32 -40 -26 -47 43 -47 74 0 209 -24 250 -45 17 -8 38 -15 47 -15 17 0
147 -102 165 -129 25 -39 65 -113 65 -121 0 -6 -6 -10 -14 -10 -7 0 -19 -7
-26 -15 -18 -22 -27 -18 -33 14 -9 42 -70 134 -114 170 -51 43 -146 87 -210
99 -29 5 -53 9 -53 8 0 -1 25 -28 55 -60 61 -66 89 -113 99 -168 5 -28 3 -38
-6 -38 -7 0 -25 -6 -39 -14 l-27 -14 -13 62 c-18 87 -34 121 -81 172 -38 41
-109 76 -124 61 -4 -3 -2 -26 4 -49 15 -62 36 -238 29 -245 -4 -3 -13 0 -21 7
-20 16 -82 16 -101 0 -13 -11 -15 -3 -14 56 0 73 20 201 34 223 6 11 0 12 -30
7 -89 -17 -161 -108 -186 -236 -7 -35 -14 -59 -17 -52 -2 7 -21 15 -43 18 -21
4 -39 12 -39 18 0 31 64 139 114 191 31 32 56 60 56 62 0 5 -47 -6 -104 -23
-64 -20 -164 -84 -199 -129 -30 -37 -77 -126 -77 -143 0 -6 -15 -1 -34 11 -37
24 -36 30 3 92 53 83 133 147 229 182 92 33 191 53 268 53 68 0 82 13 44 40
-24 18 -27 66 -4 98 22 32 76 30 103 -4z m-145 -265 c-9 -29 -20 -92 -24 -139
-7 -69 -6 -87 6 -96 18 -15 18 -21 -6 -51 -31 -40 -23 -121 14 -145 18 -12
-25 -37 -64 -38 -59 0 -68 12 -42 58 27 49 28 76 2 113 -19 26 -20 34 -10 91
17 92 40 159 67 196 27 36 65 73 70 69 1 -2 -4 -28 -13 -58z m207 29 c42 -44
76 -119 88 -197 6 -36 15 -67 21 -71 7 -4 1 -20 -15 -44 -32 -47 -33 -101 -4
-133 18 -18 20 -25 9 -38 -15 -19 -80 -20 -105 -2 -17 13 -17 15 5 45 28 38
24 96 -10 139 -20 25 -20 28 -5 32 16 3 17 13 11 108 -4 58 -11 113 -15 122
-11 22 -23 71 -16 71 3 0 19 -15 36 -32z m268 -53 c37 -25 91 -93 91 -115 0
-5 4 -10 8 -10 4 0 14 -20 21 -45 10 -33 18 -45 32 -45 25 0 24 -22 -1 -45
-30 -28 -36 -78 -12 -118 23 -39 15 -61 -23 -71 -17 -4 -37 0 -55 11 -29 17
-39 33 -21 33 5 0 16 16 25 35 17 36 14 77 -9 105 -21 25 -41 72 -54 124 -15
61 -43 116 -81 160 -17 18 -30 36 -30 40 0 7 51 -21 109 -59z m-680 28 c-13
-15 -26 -30 -29 -33 -9 -8 -70 -149 -70 -161 0 -10 -29 -72 -55 -119 -19 -33
-19 -49 5 -95 25 -49 13 -67 -43 -63 -49 4 -69 28 -44 53 35 35 34 92 -3 135
-26 30 -25 40 5 40 17 0 25 6 25 17 0 9 14 46 31 82 30 66 74 110 153 153 45
25 53 22 25 -9z m-324 -235 c16 -7 25 -19 25 -35 0 -13 9 -31 20 -40 26 -23
25 -61 -1 -89 -19 -21 -20 -25 -8 -54 15 -33 68 -70 101 -70 68 0 157 113 96
122 -33 4 -39 71 -9 90 12 7 21 21 21 32 0 25 28 56 50 56 22 0 60 -37 60 -59
0 -10 9 -26 20 -36 34 -31 21 -85 -22 -85 -39 0 -9 -66 47 -100 36 -22 85 -26
102 -9 6 6 22 16 34 23 12 6 28 25 36 43 12 31 11 33 -15 45 -36 17 -43 71
-13 90 12 7 21 19 21 27 0 22 31 51 53 51 26 0 57 -28 57 -51 0 -10 9 -23 21
-29 31 -17 23 -71 -13 -88 -33 -16 -33 -18 -9 -57 46 -74 134 -82 196 -18 42
43 44 58 8 75 -35 17 -44 69 -16 90 10 7 24 26 31 41 14 32 33 42 67 33 15 -4
27 -16 31 -32 4 -14 17 -36 30 -49 13 -13 24 -31 24 -39 0 -19 -27 -46 -46
-46 -18 0 -18 -39 1 -63 18 -24 79 -57 106 -57 30 0 79 38 94 74 12 28 11 32
-11 53 -31 28 -30 48 1 79 14 14 25 33 25 42 0 25 20 42 48 42 28 0 29 7 -8
-185 -11 -60 -25 -137 -31 -169 -5 -33 -12 -63 -15 -68 -3 -4 -270 -8 -594 -8
-552 0 -589 1 -594 18 -4 13 -66 377 -68 401 -2 24 9 26 47 9z m1282 -590 c-7
-113 -17 -266 -37 -563 -6 -88 -15 -215 -19 -283 -7 -108 -12 -130 -40 -186
-48 -97 -58 -102 -445 -197 -80 -20 -204 -28 -225 -15 -4 3 -82 21 -172 41
-215 46 -259 68 -303 149 -36 67 -33 35 -67 581 -5 88 -14 212 -19 277 -6 64
-10 159 -10 212 l0 96 672 0 671 0 -6 -112z"/>
<path d="M373 1278 c-25 -29 -63 -108 -63 -133 0 -10 7 -27 16 -37 14 -14 14
-20 4 -33 -16 -19 -44 -19 -60 0 -10 12 -10 19 -2 27 17 17 15 83 -3 98 -8 7
-15 22 -15 35 0 32 -31 55 -75 55 -37 0 -37 0 -31 -32 4 -18 11 -87 16 -153 5
-66 12 -139 16 -162 l7 -43 233 0 233 0 6 33 c9 54 35 297 35 328 0 26 -3 29
-34 29 -37 0 -76 -36 -76 -70 0 -10 -7 -20 -15 -24 -21 -8 -19 -65 2 -89 17
-18 17 -19 -2 -33 -45 -33 -85 -5 -60 42 19 36 19 55 0 80 -8 10 -15 27 -15
37 0 26 -45 67 -73 67 -13 0 -33 -10 -44 -22z m-156 -60 c-3 -11 2 -22 14 -28
23 -13 25 -56 3 -68 -27 -15 -9 -66 29 -87 30 -16 36 -16 70 -2 21 9 42 27 49
43 11 24 10 28 -10 42 -28 19 -30 62 -2 69 11 3 17 10 14 15 -3 5 -3 20 0 34
10 38 57 30 71 -11 5 -16 16 -35 24 -41 19 -15 7 -60 -19 -67 -26 -7 -25 -19
5 -55 45 -53 108 -49 143 10 15 26 15 28 -7 52 -19 20 -21 28 -12 45 7 12 16
21 21 21 6 0 10 13 10 29 0 28 15 49 27 38 5 -6 -12 -203 -24 -279 l-6 -38
-201 0 -202 0 -12 103 c-7 56 -15 131 -18 167 l-7 65 22 -20 c13 -11 20 -27
18 -37z"/>
<path d="M764 1248 c3 -24 10 -101 16 -173 7 -71 14 -140 16 -152 l4 -23 235
0 235 0 4 23 c4 19 36 338 36 360 0 4 -14 7 -30 7 -35 0 -80 -38 -80 -68 0
-11 -7 -22 -15 -26 -18 -7 -21 -76 -4 -93 19 -19 2 -43 -29 -43 -42 0 -55 18
-31 43 23 25 25 70 4 87 -8 7 -15 20 -15 30 0 34 -39 70 -75 70 -36 0 -75 -36
-75 -70 0 -10 -7 -23 -15 -30 -20 -16 -19 -54 1 -85 19 -30 11 -45 -25 -45
-43 0 -52 17 -29 56 18 30 18 35 4 61 -8 15 -20 39 -26 53 -19 43 -41 60 -77
60 l-34 0 5 -42z m64 0 c7 -7 12 -21 12 -32 0 -11 7 -27 16 -37 16 -18 12 -59
-7 -59 -21 0 -8 -59 17 -79 48 -38 111 -18 133 42 8 22 7 27 -9 32 -10 3 -21
13 -24 21 -7 18 10 54 24 54 6 0 10 11 10 24 0 54 61 58 68 5 2 -13 10 -28 18
-32 22 -13 18 -64 -6 -72 -28 -9 -25 -32 9 -66 38 -37 82 -39 116 -4 28 27 33
70 10 79 -20 7 -19 32 3 54 9 9 16 24 14 33 -1 8 6 24 18 34 20 18 20 18 20
-23 0 -23 -5 -76 -10 -119 -6 -43 -13 -97 -16 -120 l-5 -43 -204 0 -204 0 -5
43 c-9 78 -26 252 -26 265 0 15 12 16 28 0z"/>
<path d="M403 728 c4 -40 11 -127 17 -193 5 -66 12 -137 16 -157 l6 -38 278 0
277 0 7 43 c9 62 46 379 46 400 0 13 -8 17 -36 17 -39 0 -94 -44 -94 -75 0 -9
-9 -25 -20 -37 -24 -26 -26 -70 -5 -102 19 -29 11 -52 -21 -60 -48 -12 -82 26
-49 54 17 14 21 95 6 105 -5 3 -15 22 -22 43 -16 48 -44 72 -84 72 -39 0 -85
-34 -85 -62 0 -11 -9 -31 -20 -45 -29 -37 -22 -102 13 -125 7 -4 6 -12 -2 -22
-15 -18 -67 -21 -91 -6 -13 8 -13 13 3 39 21 36 22 94 2 111 -8 7 -19 29 -25
50 -11 41 -40 60 -92 60 l-31 0 6 -72z m82 -12 c1 -14 8 -31 17 -38 25 -21 28
-44 7 -66 -41 -45 -11 -113 56 -125 40 -7 92 18 110 54 20 38 19 44 -10 57
-35 16 -35 64 -1 80 18 8 23 16 19 31 -11 43 41 68 73 36 9 -8 14 -23 12 -33
-1 -9 7 -27 20 -40 29 -29 28 -48 -5 -69 -16 -9 -29 -18 -31 -19 -2 -1 3 -17
11 -36 17 -41 75 -73 114 -63 70 17 104 79 64 116 -26 25 -27 44 -1 66 11 10
20 30 20 45 0 25 34 58 46 45 3 -3 1 -33 -5 -68 -5 -35 -15 -109 -21 -164 -6
-55 -13 -110 -16 -123 l-4 -22 -243 2 -242 3 -2 30 c-4 50 -23 257 -29 309
l-5 49 23 -15 c14 -10 23 -26 23 -42z"/>
</g>
</svg>
